<svg xmlns="http://www.w3.org/2000/svg" xmlns:xlink="http://www.w3.org/1999/xlink" width="800" zoomAndPan="magnify" viewBox="0 0 600 599.999999" height="800" preserveAspectRatio="xMidYMid meet" version="1.0"><defs><clipPath id="1d3132ce97"><path d="M 158.183594 0 L 441.683594 0 L 441.683594 600 L 158.183594 600 Z M 158.183594 0 " clip-rule="nonzero"/></clipPath></defs><g clip-path="url(#1d3132ce97)"><path fill="#ffffff" d="M 376.277344 99.421875 L 441.683594 99.421875 L 441.683594 0.769531 L 358.167969 0.769531 L 358.167969 1.144531 C 248.363281 5.171875 225.722656 66.703125 223.835938 131.761719 L 223.585938 131.761719 L 223.585938 200.214844 L 158.183594 200.214844 L 158.183594 298.992188 L 223.585938 298.992188 L 223.585938 599.230469 L 340.933594 599.230469 L 340.933594 298.992188 L 425.078125 298.992188 L 441.683594 200.214844 L 340.933594 200.214844 L 340.933594 138.933594 C 340.933594 117.164062 355.523438 99.421875 376.277344 99.421875 Z M 376.277344 99.421875 " fill-opacity="1" fill-rule="nonzero"/></g></svg>