<svg xmlns="http://www.w3.org/2000/svg" xmlns:xlink="http://www.w3.org/1999/xlink" width="800" zoomAndPan="magnify" viewBox="0 0 600 599.999999" height="800" preserveAspectRatio="xMidYMid meet" version="1.0"><defs><clipPath id="9ef75f8162"><path d="M 314 217.5 L 541 217.5 L 541 377 L 314 377 Z M 314 217.5 " clip-rule="nonzero"/></clipPath><clipPath id="27aff8091f"><path d="M 2 217.5 L 315 217.5 L 315 382.5 L 2 382.5 Z M 2 217.5 " clip-rule="nonzero"/></clipPath></defs><path fill="#000000" d="M 594.105469 361.074219 C 594.105469 351.902344 587.601562 345.183594 578.636719 345.183594 C 569.6875 345.183594 563.175781 351.902344 563.175781 361.074219 C 563.175781 370.234375 569.6875 376.941406 578.636719 376.941406 C 587.601562 376.941406 594.105469 370.222656 594.105469 361.074219 Z M 574.574219 361.890625 L 574.574219 372.273438 L 571.21875 372.273438 L 571.21875 349.382812 L 579.550781 349.382812 C 584.4375 349.382812 586.675781 351.511719 586.675781 355.671875 C 586.675781 358.230469 584.945312 360.261719 582.714844 360.554688 L 582.714844 360.652344 C 584.652344 360.960938 585.363281 362.6875 585.761719 365.847656 C 586.066406 367.894531 586.472656 371.445312 587.203125 372.277344 L 583.234375 372.277344 C 582.3125 370.128906 582.402344 367.082031 581.691406 364.535156 C 581.105469 362.59375 580.070312 361.886719 577.847656 361.886719 L 574.589844 361.886719 L 574.589844 361.898438 Z M 578.730469 358.933594 C 581.988281 358.933594 582.917969 357.199219 582.917969 355.667969 C 582.917969 353.859375 581.988281 352.429688 578.730469 352.429688 L 574.574219 352.429688 L 574.574219 358.9375 L 578.730469 358.9375 Z M 559.488281 361.074219 C 559.488281 349.773438 568.460938 342.128906 578.621094 342.128906 C 588.8125 342.128906 597.777344 349.773438 597.777344 361.074219 C 597.777344 372.355469 588.816406 380.007812 578.621094 380.007812 C 568.460938 380.007812 559.488281 372.355469 559.488281 361.074219 Z M 559.488281 361.074219 " fill-opacity="1" fill-rule="nonzero"/><g clip-path="url(#9ef75f8162)"><path fill="#000000" d="M 493.171875 376.703125 L 471.109375 351.964844 L 449.242188 376.703125 L 403.230469 376.703125 L 448.199219 326.179688 L 403.230469 275.644531 L 450.679688 275.644531 L 472.964844 300.195312 L 494.40625 275.644531 L 540.195312 275.644531 L 495.449219 325.96875 L 540.816406 376.703125 Z M 314.875 376.703125 L 314.875 217.5 L 403.230469 217.5 L 403.230469 252.988281 L 352.300781 252.988281 L 352.300781 275.644531 L 403.230469 275.644531 L 403.230469 309.789062 L 352.300781 309.789062 L 352.300781 341.128906 L 403.230469 341.128906 L 403.230469 376.703125 Z M 314.875 376.703125 " fill-opacity="1" fill-rule="nonzero"/></g><g clip-path="url(#27aff8091f)"><path fill="#ffd802" d="M 277.585938 217.5 L 277.585938 282.65625 L 277.175781 282.65625 C 268.921875 273.171875 258.609375 269.867188 246.648438 269.867188 C 222.144531 269.867188 203.683594 286.539062 197.203125 308.5625 C 189.808594 284.289062 170.75 269.410156 142.492188 269.410156 C 119.535156 269.410156 101.417969 279.710938 91.953125 296.496094 L 91.953125 275.640625 L 44.515625 275.640625 L 44.515625 252.988281 L 96.289062 252.988281 L 96.289062 217.507812 L 2.226562 217.507812 L 2.226562 376.703125 L 44.515625 376.703125 L 44.515625 309.789062 L 86.664062 309.789062 C 85.359375 314.953125 84.714844 320.203125 84.730469 325.53125 C 84.730469 358.722656 110.097656 382.050781 142.484375 382.050781 C 169.707031 382.050781 187.660156 369.257812 197.148438 345.96875 L 160.90625 345.96875 C 156.007812 352.976562 152.289062 355.046875 142.488281 355.046875 C 131.128906 355.046875 121.324219 345.128906 121.324219 333.390625 L 195.117188 333.390625 C 198.316406 359.761719 218.863281 382.5 247.0625 382.5 C 259.226562 382.5 270.363281 376.519531 277.171875 366.414062 L 277.578125 366.414062 L 277.578125 376.726562 L 314.863281 376.726562 L 314.863281 217.507812 L 277.585938 217.507812 Z M 122.5 310.265625 C 124.855469 300.148438 132.699219 293.539062 142.488281 293.539062 C 153.265625 293.539062 160.710938 299.945312 162.664062 310.265625 Z M 254.960938 352.476562 C 241.222656 352.476562 232.683594 339.675781 232.683594 326.308594 C 232.683594 312.015625 240.113281 298.285156 254.960938 298.285156 C 270.367188 298.285156 276.503906 312.023438 276.503906 326.308594 C 276.503906 339.847656 270.003906 352.476562 254.960938 352.476562 Z M 254.960938 352.476562 " fill-opacity="1" fill-rule="nonzero"/></g></svg>