<svg xmlns="http://www.w3.org/2000/svg" xmlns:xlink="http://www.w3.org/1999/xlink" width="800" zoomAndPan="magnify" viewBox="0 0 600 599.999999" height="800" preserveAspectRatio="xMidYMid meet" version="1.0"><path fill="#ffffff" d="M 175.675781 2.0625 C 143.769531 3.5625 121.976562 8.675781 102.929688 16.136719 C 83.203125 23.824219 66.5 34.113281 49.882812 50.816406 C 33.234375 67.519531 23.003906 84.25 15.402344 104.003906 C 8.027344 123.109375 3.023438 144.898438 1.609375 176.835938 C 0.199219 208.800781 -0.113281 219 0.0273438 300.453125 C 0.167969 381.875 0.535156 392.105469 2.0625 424.097656 C 3.589844 456.003906 8.675781 477.765625 16.136719 496.84375 C 23.824219 516.570312 34.113281 533.246094 50.816406 549.890625 C 67.519531 566.539062 84.25 576.742188 104.003906 584.371094 C 123.082031 591.746094 144.898438 596.777344 176.804688 598.164062 C 208.800781 599.574219 219 599.886719 300.425781 599.71875 C 381.875 599.574219 392.078125 599.207031 424.070312 597.683594 C 455.976562 596.15625 477.738281 591.039062 496.816406 583.609375 C 516.542969 575.894531 533.246094 565.632812 549.863281 548.929688 C 566.480469 532.226562 576.710938 515.496094 584.34375 495.742188 C 591.71875 476.664062 596.75 454.847656 598.132812 422.96875 C 599.519531 390.976562 599.859375 380.746094 599.71875 299.320312 C 599.574219 217.898438 599.179688 207.695312 597.683594 175.703125 C 596.15625 143.769531 591.070312 122.007812 583.609375 102.929688 C 575.894531 83.203125 565.632812 66.527344 548.929688 49.882812 C 532.226562 33.265625 515.496094 23.003906 495.742188 15.402344 C 476.664062 8.027344 454.847656 2.996094 422.9375 1.609375 C 390.945312 0.199219 380.714844 -0.113281 299.292969 0.0273438 C 217.871094 0.167969 207.667969 0.535156 175.675781 2.0625 M 179.179688 544.15625 C 149.957031 542.882812 134.074219 538.023438 123.476562 533.953125 C 109.457031 528.527344 99.480469 522.023438 88.941406 511.597656 C 78.425781 501.113281 71.925781 491.136719 66.445312 477.171875 C 62.347656 466.605469 57.398438 450.75 56.015625 421.496094 C 54.515625 389.902344 54.179688 380.40625 54.035156 300.339844 C 53.894531 220.300781 54.179688 210.804688 55.5625 179.179688 C 56.804688 149.957031 61.695312 134.074219 65.765625 123.503906 C 71.191406 109.488281 77.664062 99.511719 88.121094 88.96875 C 98.605469 78.453125 108.582031 71.953125 122.570312 66.472656 C 133.140625 62.347656 148.996094 57.429688 178.21875 56.042969 C 209.84375 54.546875 219.3125 54.234375 299.378906 54.066406 C 379.445312 53.894531 388.941406 54.179688 420.566406 55.589844 C 449.789062 56.863281 465.671875 61.695312 476.242188 65.792969 C 490.257812 71.21875 500.265625 77.664062 510.777344 88.148438 C 521.289062 98.632812 527.820312 108.582031 533.273438 122.601562 C 537.398438 133.140625 542.316406 149.023438 543.703125 178.21875 C 545.199219 209.84375 545.539062 219.339844 545.679688 299.378906 C 545.820312 379.445312 545.539062 388.941406 544.15625 420.535156 C 542.882812 449.757812 538.023438 465.671875 533.953125 476.242188 C 528.527344 490.230469 522.054688 500.234375 511.570312 510.75 C 501.082031 521.234375 491.136719 527.761719 477.117188 533.246094 C 466.574219 537.371094 450.691406 542.289062 421.496094 543.675781 C 389.871094 545.171875 380.40625 545.511719 300.3125 545.652344 C 220.273438 545.792969 210.777344 545.511719 179.152344 544.125 M 423.644531 139.585938 C 423.675781 159.453125 439.839844 175.535156 459.679688 175.476562 C 479.546875 175.449219 495.628906 159.3125 495.601562 139.445312 C 495.574219 119.574219 479.40625 103.496094 459.539062 103.523438 C 439.671875 103.550781 423.589844 119.71875 423.617188 139.558594 M 145.886719 300.167969 C 146.058594 385.210938 215.128906 454 300.140625 453.828125 C 385.179688 453.660156 454 384.617188 453.828125 299.574219 C 453.660156 214.5625 384.585938 145.746094 299.546875 145.886719 C 214.535156 146.058594 145.71875 215.128906 145.886719 300.167969 M 199.894531 300.054688 C 199.8125 244.859375 244.464844 200.007812 299.660156 199.925781 C 354.855469 199.8125 399.707031 244.464844 399.820312 299.6875 C 399.933594 354.882812 355.253906 399.734375 300.054688 399.820312 C 244.859375 399.933594 200.007812 355.253906 199.925781 300.054688 " fill-opacity="1" fill-rule="nonzero"/></svg>