<svg xmlns="http://www.w3.org/2000/svg" xmlns:xlink="http://www.w3.org/1999/xlink" width="800" zoomAndPan="magnify" viewBox="0 0 600 599.999999" height="800" preserveAspectRatio="xMidYMid meet" version="1.0"><path fill="#ffffff" d="M 513.582031 514.195312 L 424.257812 514.195312 L 424.257812 374.332031 C 424.257812 340.976562 423.660156 298.046875 377.804688 298.046875 C 331.949219 298.046875 324.167969 334.386719 324.167969 371.917969 L 324.167969 514.195312 L 234.84375 514.195312 L 234.84375 226.566406 L 320.585938 226.566406 L 320.585938 265.886719 L 321.78125 265.886719 C 339.253906 236 371.78125 218.128906 406.386719 219.4375 C 496.902344 219.4375 513.609375 278.984375 513.609375 356.433594 L 513.609375 514.226562 Z M 134.097656 187.246094 C 105.460938 187.246094 82.277344 164.0625 82.25 135.425781 C 82.21875 106.789062 105.433594 83.605469 134.070312 83.574219 C 162.707031 83.574219 185.890625 106.757812 185.917969 135.398438 C 185.949219 164.035156 162.738281 187.21875 134.097656 187.246094 M 178.761719 514.195312 L 89.351562 514.195312 L 89.351562 226.566406 L 178.761719 226.566406 Z M 558.101562 0.644531 L 44.492188 0.644531 C 20.199219 0.390625 0.285156 19.820312 0 44.113281 L 0 559.882812 C 0.285156 584.171875 20.199219 603.632812 44.492188 603.378906 L 558.128906 603.378906 C 582.476562 603.691406 602.449219 584.230469 602.789062 559.882812 L 602.789062 44.054688 C 602.421875 19.738281 582.449219 0.304688 558.101562 0.617188 " fill-opacity="1" fill-rule="nonzero"/></svg>