<svg xmlns="http://www.w3.org/2000/svg" xmlns:xlink="http://www.w3.org/1999/xlink" width="800" zoomAndPan="magnify" viewBox="0 0 600 599.999999" height="800" preserveAspectRatio="xMidYMid meet" version="1.0"><defs><clipPath id="16612af11f"><path d="M 0 34.125 L 600 34.125 L 600 565.875 L 0 565.875 Z M 0 34.125 " clip-rule="nonzero"/></clipPath></defs><g clip-path="url(#16612af11f)"><path fill="#ffffff" d="M 599.8125 34.136719 L 494.128906 565.863281 L 299.300781 416.402344 C 299.296875 416.398438 299.296875 416.398438 299.296875 416.398438 L 254.628906 382.128906 L 506.265625 130.230469 C 509.4375 127.054688 509.722656 122.003906 506.9375 118.496094 C 504.148438 114.980469 499.171875 114.121094 495.355469 116.484375 L 148.378906 332.019531 L 0.1875 273.988281 L 599.8125 34.136719 " fill-opacity="1" fill-rule="nonzero"/></g><path fill="#ffffff" d="M 281.40625 424.9375 L 221.03125 500.703125 L 246.582031 398.21875 Z M 281.40625 424.9375 " fill-opacity="1" fill-rule="nonzero"/><path fill="#ffffff" d="M 439.761719 171.804688 L 235.019531 376.769531 C 234.984375 376.808594 234.945312 376.859375 234.898438 376.898438 C 234.824219 376.972656 234.753906 377.058594 234.679688 377.136719 C 234.621094 377.199219 234.566406 377.261719 234.515625 377.328125 C 234.445312 377.410156 234.375 377.492188 234.3125 377.578125 C 234.261719 377.640625 234.210938 377.710938 234.15625 377.777344 C 234.09375 377.863281 234.03125 377.953125 233.976562 378.039062 C 233.929688 378.109375 233.878906 378.179688 233.835938 378.246094 C 233.773438 378.339844 233.722656 378.433594 233.660156 378.527344 C 233.625 378.59375 233.582031 378.667969 233.539062 378.742188 C 233.488281 378.835938 233.4375 378.933594 233.390625 379.035156 C 233.351562 379.109375 233.316406 379.175781 233.28125 379.25 C 233.234375 379.351562 233.1875 379.460938 233.140625 379.5625 C 233.113281 379.632812 233.082031 379.703125 233.050781 379.777344 C 233.011719 379.890625 232.96875 380.007812 232.925781 380.125 C 232.90625 380.1875 232.878906 380.257812 232.855469 380.316406 C 232.808594 380.476562 232.765625 380.625 232.722656 380.78125 C 232.714844 380.820312 232.707031 380.847656 232.699219 380.875 L 202.273438 502.9375 L 190.039062 457.980469 L 159.523438 345.886719 L 439.761719 171.804688 " fill-opacity="1" fill-rule="nonzero"/></svg>