<svg xmlns="http://www.w3.org/2000/svg" xmlns:xlink="http://www.w3.org/1999/xlink" width="800" zoomAndPan="magnify" viewBox="0 0 600 599.999999" height="800" preserveAspectRatio="xMidYMid meet" version="1.0"><defs><clipPath id="f3ad401909"><path d="M 1 0.28125 L 336 0.28125 L 336 282 L 1 282 Z M 1 0.28125 " clip-rule="nonzero"/></clipPath><clipPath id="2f05fcec10"><rect x="0" width="558" y="0" height="571"/></clipPath></defs><g transform="matrix(1, 0, 0, 1, 21, 17)"><g clip-path="url(#2f05fcec10)"><path fill="#186b26" d="M 222.085938 449.171875 C 319.882812 483.769531 417.660156 518.375 515.460938 552.972656 C 528.929688 557.746094 542.398438 562.503906 556.070312 567.328125 L 556.070312 404.417969 C 444.722656 365 333.441406 325.613281 222.085938 286.195312 L 222.085938 449.171875 " fill-opacity="1" fill-rule="nonzero"/><path fill="#186b26" d="M 97.605469 404.671875 C 195.402344 439.265625 293.179688 473.875 390.980469 508.46875 C 404.449219 513.242188 417.917969 518 431.59375 522.824219 L 431.59375 359.914062 C 320.246094 320.496094 208.960938 281.109375 97.609375 241.691406 L 97.609375 404.671875 " fill-opacity="1" fill-rule="nonzero"/><path fill="#ffd802" d="M 126.183594 207.9375 C 223.980469 242.535156 321.761719 277.140625 419.5625 311.738281 C 433.027344 316.511719 446.5 321.269531 460.171875 326.09375 L 460.171875 163.183594 C 348.824219 123.765625 237.539062 84.378906 126.1875 44.960938 L 126.1875 207.9375 " fill-opacity="1" fill-rule="nonzero"/><g clip-path="url(#f3ad401909)"><path fill="#ffd802" d="M 1.707031 163.4375 C 99.503906 198.03125 197.28125 232.640625 295.082031 267.234375 C 308.550781 272.007812 322.019531 276.765625 335.691406 281.589844 L 335.691406 118.679688 C 224.34375 79.261719 113.0625 39.875 1.707031 0.457031 L 1.707031 163.4375 " fill-opacity="1" fill-rule="nonzero"/></g></g></g></svg>