<svg xmlns="http://www.w3.org/2000/svg" xmlns:xlink="http://www.w3.org/1999/xlink" width="800" zoomAndPan="magnify" viewBox="0 0 600 599.999999" height="800" preserveAspectRatio="xMidYMid meet" version="1.0"><defs><clipPath id="5e80b3f058"><path d="M 50.726562 0 L 549.476562 0 L 549.476562 594 L 50.726562 594 Z M 50.726562 0 " clip-rule="nonzero"/></clipPath></defs><path fill="#000000" d="M 124.921875 490.207031 C 82.785156 455.785156 60.234375 405.933594 60.234375 346.585938 L 60.234375 64.6875 C 127.296875 29.671875 207.414062 11.871094 299.996094 11.871094 C 392.578125 11.871094 472.695312 29.671875 539.757812 65.28125 L 539.757812 347.179688 C 539.757812 406.527344 517.207031 456.378906 475.070312 490.800781 C 436.496094 521.660156 314.238281 575.667969 299.996094 581.601562 C 285.753906 575.667969 163.5 521.660156 124.921875 490.207031 Z M 124.921875 490.207031 " fill-opacity="1" fill-rule="nonzero"/><g clip-path="url(#5e80b3f058)"><path fill="#ffd802" d="M 526.703125 61.722656 C 495.84375 58.753906 463.796875 56.972656 431.152344 56.972656 C 310.085938 56.972656 180.707031 83.085938 73.882812 181.007812 L 73.882812 348.960938 C 73.882812 403.5625 94.0625 449.257812 132.636719 480.710938 C 166.464844 508.011719 270.917969 555.488281 300.589844 568.546875 C 329.671875 555.488281 433.527344 509.199219 468.542969 480.710938 C 507.117188 448.664062 527.296875 404.15625 527.296875 348.960938 L 527.296875 61.722656 M 95.84375 331.15625 L 95.84375 194.660156 L 139.164062 194.660156 L 139.164062 332.9375 C 139.164062 345.402344 142.132812 363.203125 162.3125 363.203125 C 169.433594 363.203125 176.554688 361.425781 183.082031 357.863281 L 183.082031 195.253906 L 226.40625 195.253906 L 226.40625 383.382812 C 206.820312 395.847656 184.269531 401.78125 161.125 400.59375 C 117.800781 400.59375 95.84375 377.449219 95.84375 331.15625 M 291.6875 489.019531 L 248.363281 489.019531 L 248.363281 205.933594 C 266.167969 195.253906 286.347656 189.910156 307.117188 190.503906 C 358.75 190.503906 387.238281 229.671875 387.238281 293.175781 C 387.238281 356.675781 359.34375 400 311.273438 400 C 304.746094 400 298.214844 399.40625 291.6875 397.625 Z M 291.6875 362.019531 C 296.4375 363.796875 301.183594 364.390625 305.929688 364.390625 C 330.855469 364.390625 342.726562 341.246094 342.726562 293.769531 C 342.726562 245.105469 332.042969 224.925781 307.117188 224.925781 C 301.777344 224.925781 296.4375 226.113281 291.6875 227.894531 Z M 396.734375 247.476562 C 397.324219 216.023438 423.4375 190.503906 454.894531 191.097656 C 472.105469 189.910156 488.722656 195.253906 502.371094 205.339844 L 502.371094 243.324219 C 492.28125 232.640625 478.039062 226.113281 463.796875 225.519531 C 451.332031 225.519531 438.871094 230.859375 438.277344 246.289062 C 437.683594 262.316406 450.738281 268.25 466.761719 277.746094 C 502.964844 299.109375 510.085938 318.101562 508.898438 343.621094 C 508.304688 371.511719 488.722656 401.78125 445.992188 401.78125 C 429.375 401.78125 412.757812 397.03125 398.511719 388.128906 L 398.511719 348.367188 C 409.789062 358.457031 424.625 364.984375 440.054688 366.171875 C 456.078125 366.171875 466.167969 357.269531 466.167969 341.839844 C 465.574219 328.191406 457.859375 321.066406 438.871094 309.792969 C 403.261719 287.242188 396.734375 270.03125 396.734375 247.476562 M 117.800781 497.921875 C 73.882812 462.316406 50.738281 410.683594 50.738281 348.960938 L 50.738281 55.191406 C 120.175781 18.398438 203.855469 0 299.996094 0 C 396.140625 0 479.820312 18.398438 549.253906 55.191406 L 549.253906 348.960938 C 549.253906 410.683594 526.109375 462.316406 482.191406 498.515625 C 441.835938 531.15625 314.832031 587.535156 299.996094 593.472656 C 285.160156 586.945312 158.15625 531.15625 117.800781 497.921875 Z M 459.046875 559.644531 L 459.046875 585.164062 L 463.796875 585.164062 L 463.796875 574.480469 L 464.386719 574.480469 C 464.980469 575.074219 471.511719 585.164062 471.511719 585.164062 L 476.851562 585.164062 C 476.851562 585.164062 469.730469 575.074219 469.136719 573.886719 C 472.695312 573.292969 475.070312 570.328125 475.070312 567.359375 C 475.070312 562.609375 470.917969 559.050781 466.761719 559.644531 Z M 466.167969 563.203125 C 470.324219 563.203125 470.917969 564.984375 470.917969 566.765625 C 470.917969 569.140625 469.730469 570.917969 464.980469 570.917969 L 464.386719 570.917969 L 464.386719 563.203125 Z M 483.972656 572.699219 C 483.972656 588.128906 465.574219 595.847656 454.300781 584.570312 C 443.023438 573.292969 451.332031 554.894531 466.761719 554.894531 C 476.257812 555.488281 483.972656 563.203125 483.972656 572.699219 M 466.761719 551.335938 C 448.363281 551.335938 438.871094 573.886719 451.925781 586.945312 C 464.980469 600 487.535156 591.097656 487.535156 572.105469 C 487.535156 560.832031 478.039062 551.335938 466.761719 551.335938 " fill-opacity="1" fill-rule="nonzero"/></g></svg>